# xmcd CD database file
#
# Track frame offsets:
#	183
#	22508
#	42558
#	60108
#	75045
#	90958
#	111795
#	128758
#	142258
#	155570
#	169783
#	181395
#	199920
#
# Disc length: 2966 seconds
#
# Revision: 0
# Processed by: cddbd v1.4PL0 Copyright (c) Steve Scherf et al.
# Submitted via: CDex 1.51
#
DISCID=980b940d
DTITLE=Louis Armstrong - The Best of Vol.3
DYEAR=1995
DGENRE=Blues
TTITLE0=St. Louis Blues
TTITLE1=Basin Street Blues
TTITLE2=King Porter Stomp
TTITLE3=Jeepers Creepers
TTITLE4=Panama Rag
TTITLE5=Struttin' with some Barbecue
TTITLE6=Do You Know What It Means
TTITLE7=I can't give you
TTITLE8=On the sunny side of the street
TTITLE9=Sout rampart street paradise
TTITLE10=I love Jazz
TTITLE11=West End Blues
TTITLE12=Twelft Street Rag
EXTD=YEAR: 1995
EXTT0=
EXTT1=
EXTT2=
EXTT3=
EXTT4=
EXTT5=
EXTT6=
EXTT7=
EXTT8=
EXTT9=
EXTT10=
EXTT11=
EXTT12=
PLAYORDER=
